<svg xmlns="http://www.w3.org/2000/svg" width="24" height="16.8" viewBox="0 0 24 16.8">
  <path id="Icon_YouTube" data-name="Icon YouTube" d="M23.5,79.423A3.005,3.005,0,0,0,21.377,77.3C19.505,76.8,12,76.8,12,76.8s-7.505,0-9.377.5A3.006,3.006,0,0,0,.5,79.423a33.526,33.526,0,0,0,0,11.553A3.006,3.006,0,0,0,2.623,93.1c1.872.5,9.377.5,9.377.5s7.5,0,9.377-.5A3.006,3.006,0,0,0,23.5,90.977,31.238,31.238,0,0,0,24,85.2a31.241,31.241,0,0,0-.5-5.777ZM9.6,88.8V81.6l6.235,3.6L9.6,88.8Z" transform="translate(0 -76.8)" fill="#f7f7f7"/>
</svg>
